# xmcd
#
# Track frame offsets: 
#        150
#        9260
#        22985
#        35985
#        49269
#        58932
#        66800
#        77665
#        94989
#        109989
#        121274
#        138873
#        154931
#        166134
#        177650
#        188501
#        200268
#        208681
#
# Disc length: 2898 seconds
#
# Revision: 0
# Processed by: cddbd v1.5.2PL0 Copyright (c) Steve Scherf et al.
# Submitted via: ExactAudioCopy v1.0b4
#
DISCID=f80b5012
DTITLE=Various Artist - Sampler - Frohe Weihnachten
DYEAR=2017
DGENRE=Christmas
TTITLE0=Der Bergedorfer Kammerchor - Alle Jahre Wieder
TTITLE1=Zuger Liedkreis - Fröhliche Weihnacht Überall
TTITLE2=Mika und der Hambergschor - In der Weihnachtsbäckerei
TTITLE3=Singgemeinschaft Hambergsfeld - Am Weihnachtsbaume Die Lichter
TTITLE3=Brennen
TTITLE4=Die Westfälischen Nachtigallen - Ihr Kinderlein Kommet
TTITLE5=Die Schöneberger Sängerknaben - Kling Glöckchen Klingeling
TTITLE6=Tölzer Knabenchor - Schöne Weihnachtszeit (Jingle Bells)
TTITLE7=Der Gus Anton Chor - Weisse Weihnacht (White Christmas)
TTITLE8=Iris und die Rainbowkids - Süßer Die Glocken Nie Klingen
TTITLE9=Singende Strolche Gartow - O Tannenbaum
TTITLE10=Dina Radu - O Du Fröhliche
TTITLE11=Camillo Felgen and Kinderchor Prinzessin Marie-Astrid - Vom Him
TTITLE11=mel Hoch
TTITLE12=Die Alsterspatzen - Stille Nacht, Heilige Nacht
TTITLE13=Die Schaumburger Märchensänger - Still, Still, Still
TTITLE14=Torsten Schäpan - Ave Maria
TTITLE15=Die Sonntagskinder - Es Ist Ein Ros Entsprungen
TTITLE16=Ruhpoldinger Kinderchor - Kommet Ihr Hirten
TTITLE17=Der Offenbacher Kinderchor - Leise Rieselt der Schnee
EXTD=
EXTT0=
EXTT1=
EXTT2=
EXTT3=
EXTT4=
EXTT5=
EXTT6=
EXTT7=
EXTT8=
EXTT9=
EXTT10=
EXTT11=
EXTT12=
EXTT13=
EXTT14=
EXTT15=
EXTT16=
EXTT17=
PLAYORDER=
